<svg xmlns="http://www.w3.org/2000/svg" viewBox="0 0 900 900" role="img" aria-labelledby="title desc">
  <title id="title">Moon Market concept poster</title>
  <desc id="desc">A friendly forest night market with shelves and lanterns.</desc>
  <defs><linearGradient id="sky" x1="0" y1="0" x2="0" y2="1"><stop stop-color="#182c59"/><stop offset="1" stop-color="#071525"/></linearGradient><linearGradient id="ground" x1="0" y1="0" x2="1" y2="1"><stop stop-color="#214b4d"/><stop offset="1" stop-color="#102b38"/></linearGradient></defs>
  <rect width="900" height="900" rx="72" fill="url(#sky)"/><circle cx="704" cy="170" r="86" fill="#ffe0a3"/><circle cx="669" cy="144" r="16" fill="#e4bd7c" opacity=".55"/><circle cx="735" cy="202" r="11" fill="#e4bd7c" opacity=".55"/>
  <path d="M0 610Q120 520 260 610T520 590T900 570V900H0Z" fill="url(#ground)"/><path d="M80 600h740v190H80z" rx="24" fill="#7d4f3c"/><path d="M116 630h668v142H116z" fill="#d19b61"/><path d="M116 630h668" stroke="#ffe19a" stroke-width="18"/>
  <path d="M155 640v130M290 640v130M425 640v130M560 640v130M695 640v130" stroke="#754736" stroke-width="16"/><path d="M104 572h692" stroke="#f3c875" stroke-width="18" stroke-linecap="round"/><path d="M180 570l-48-92M270 570l-14-110M360 570l24-100M450 570l0-110M540 570l-22-100M630 570l-14-110M720 570l46-92" stroke="#f3c875" stroke-width="9" stroke-linecap="round"/>
  <g stroke="#47302b" stroke-width="10"><path d="M161 500h60v74h-60z" fill="#d56f68"/><path d="M264 470h60v104h-60z" fill="#79c6b1"/><path d="M374 490h60v84h-60z" fill="#f5c768"/><path d="M496 458h60v116h-60z" fill="#6f9ed4"/><path d="M608 488h60v86h-60z" fill="#d7a26d"/></g>
  <g transform="translate(280 328)"><ellipse cx="130" cy="196" rx="116" ry="120" fill="#a86f57" stroke="#442f35" stroke-width="12"/><circle cx="80" cy="179" r="14" fill="#1c2432"/><circle cx="178" cy="179" r="14" fill="#1c2432"/><path d="M100 224q30 25 60 0" fill="none" stroke="#442f35" stroke-width="10" stroke-linecap="round"/><path d="M48 108L8 30l78 46M210 108l40-78-80 46" fill="#d6a272" stroke="#442f35" stroke-width="12" stroke-linejoin="round"/><path d="M66 90q64-78 130 0" fill="none" stroke="#ffd27d" stroke-width="24"/><path d="M130 4v55" stroke="#ffd27d" stroke-width="14"/><path d="M130 0l18 21h-36z" fill="#ffd27d"/></g>
  <g fill="#ffd27d" stroke="#6b4638" stroke-width="8"><path d="M82 264h34v72H82z"/><path d="M734 274h34v72h-34z"/><path d="M158 366h34v72h-34z"/><path d="M680 382h34v72h-34z"/></g>
</svg>
