<svg xmlns="http://www.w3.org/2000/svg" viewBox="0 0 1200 900" role="img" aria-label="Animal Guard Yard cover">
  <defs>
    <linearGradient id="sky" x1="0" x2="0" y1="0" y2="1">
      <stop stop-color="#75d8ff"/>
      <stop offset=".48" stop-color="#fff0a3"/>
      <stop offset="1" stop-color="#44a85f"/>
    </linearGradient>
    <linearGradient id="frame" x1="0" x2="1" y1="0" y2="1">
      <stop stop-color="#fff8d6"/>
      <stop offset="1" stop-color="#ffb74b"/>
    </linearGradient>
    <filter id="shadow" x="-20%" y="-20%" width="140%" height="140%">
      <feDropShadow dx="0" dy="16" stdDeviation="13" flood-color="#1a2c22" flood-opacity=".3"/>
    </filter>
  </defs>
  <rect width="1200" height="900" rx="64" fill="url(#sky)"/>
  <circle cx="1012" cy="116" r="82" fill="#ffdf57"/>
  <g fill="#fff" opacity=".65">
    <ellipse cx="174" cy="155" rx="124" ry="42"/>
    <ellipse cx="284" cy="147" rx="76" ry="31"/>
    <ellipse cx="784" cy="202" rx="138" ry="43"/>
    <ellipse cx="898" cy="199" rx="84" ry="32"/>
  </g>
  <path d="M0 420 C190 370 350 414 510 462 C706 520 890 456 1200 394 L1200 900 L0 900Z" fill="#5cc867"/>
  <path d="M76 496H1124M76 626H1124M76 756H1124M226 456V848M421 456V848M616 456V848M811 456V848M1006 456V848" stroke="#257d48" stroke-width="8" opacity=".26"/>
  <rect x="52" y="50" width="1096" height="168" rx="44" fill="url(#frame)" stroke="#5c3a1e" stroke-width="10" filter="url(#shadow)"/>
  <text x="600" y="124" text-anchor="middle" font-family="Arial Rounded MT Bold, Noto Sans TC, sans-serif" font-size="64" font-weight="900" fill="#17314f">Animal Guard Yard</text>
  <text x="600" y="178" text-anchor="middle" font-family="Arial Rounded MT Bold, Noto Sans TC, sans-serif" font-size="34" font-weight="900" fill="#6a3d1b">Upgrade animals. Stop the zombies.</text>
  <g filter="url(#shadow)">
    <image href="animal-guard-cat.svg" x="88" y="455" width="230" height="230"/>
    <image href="animal-guard-dog.svg" x="294" y="575" width="230" height="230"/>
    <image href="animal-guard-owl.svg" x="500" y="440" width="230" height="230"/>
    <image href="animal-guard-fox.svg" x="666" y="585" width="230" height="230"/>
    <image href="animal-guard-zombie-normal.svg" x="865" y="438" width="226" height="226"/>
    <image href="animal-guard-zombie-shield.svg" x="985" y="612" width="238" height="238"/>
  </g>
  <path d="M82 820 C246 782 413 802 578 828 C756 856 950 850 1118 805" fill="none" stroke="#fff4bd" stroke-width="12" stroke-linecap="round" opacity=".65"/>
</svg>
