<svg xmlns="http://www.w3.org/2000/svg" viewBox="0 0 1200 900" role="img" aria-label="Animal Guard Yard cover">
  <defs>
    <linearGradient id="sky" x1="0" x2="0" y1="0" y2="1">
      <stop stop-color="#1d3c62"/>
      <stop offset=".5" stop-color="#68b66a"/>
      <stop offset="1" stop-color="#203b2a"/>
    </linearGradient>
    <linearGradient id="title" x1="0" x2="0" y1="0" y2="1">
      <stop stop-color="#fff8d4"/>
      <stop offset=".52" stop-color="#ffc84c"/>
      <stop offset="1" stop-color="#d7682b"/>
    </linearGradient>
    <linearGradient id="panel" x1="0" x2="1" y1="0" y2="1">
      <stop stop-color="#fff4bf"/>
      <stop offset=".48" stop-color="#f6b14d"/>
      <stop offset="1" stop-color="#7b4322"/>
    </linearGradient>
    <filter id="shadow" x="-30%" y="-30%" width="160%" height="160%">
      <feDropShadow dx="0" dy="18" stdDeviation="12" flood-color="#06100b" flood-opacity=".46"/>
    </filter>
    <filter id="glow" x="-30%" y="-30%" width="160%" height="160%">
      <feGaussianBlur stdDeviation="15"/>
    </filter>
  </defs>

  <rect width="1200" height="900" rx="62" fill="url(#sky)"/>
  <circle cx="1010" cy="128" r="78" fill="#ffe064"/>
  <circle cx="1010" cy="128" r="144" fill="#ffe064" opacity=".23" filter="url(#glow)"/>
  <g opacity=".58" fill="#e6f5ff">
    <ellipse cx="194" cy="132" rx="136" ry="44"/>
    <ellipse cx="310" cy="128" rx="76" ry="30"/>
    <ellipse cx="764" cy="170" rx="126" ry="39"/>
    <ellipse cx="884" cy="166" rx="72" ry="29"/>
  </g>

  <path d="M0 398 C174 340 342 366 520 430 C720 502 890 440 1200 370 L1200 900 L0 900Z" fill="#43a456"/>
  <path d="M0 552 C210 492 382 532 560 596 C774 674 950 604 1200 516 L1200 900 L0 900Z" fill="#2f7a47"/>
  <path d="M70 578H1132M70 674H1132M70 770H1132M214 500V846M350 490V846M486 480V846M622 470V846M758 460V846M894 448V846M1030 432V846" stroke="#fff2a8" stroke-width="9" opacity=".21"/>
  <path d="M70 578H1132M70 674H1132M70 770H1132M214 500V846M350 490V846M486 480V846M622 470V846M758 460V846M894 448V846M1030 432V846" stroke="#17331f" stroke-width="3" opacity=".2"/>

  <rect x="42" y="42" width="1116" height="816" rx="58" fill="none" stroke="#2c1d14" stroke-width="24" opacity=".72"/>
  <rect x="58" y="58" width="1084" height="784" rx="46" fill="none" stroke="#ffd36a" stroke-width="10" opacity=".94"/>

  <g filter="url(#shadow)">
    <path d="M124 72H1076C1120 72 1144 96 1144 140V232C1144 276 1120 300 1076 300H124C80 300 56 276 56 232V140C56 96 80 72 124 72Z" fill="url(#panel)" stroke="#3a2416" stroke-width="10"/>
    <text x="600" y="160" text-anchor="middle" font-family="Arial Rounded MT Bold, Noto Sans TC, sans-serif" font-size="72" font-weight="900" fill="#21344e" stroke="#ffffff" stroke-width="8" paint-order="stroke">Animal Guard Yard</text>
    <text x="600" y="226" text-anchor="middle" font-family="Arial Rounded MT Bold, Noto Sans TC, sans-serif" font-size="36" font-weight="900" fill="#5a2f18">Full-body animal guards vs zombies</text>
  </g>

  <g opacity=".92">
    <path d="M118 746 C236 708 386 720 520 760 C678 808 838 792 1048 714" fill="none" stroke="#fff0a6" stroke-width="16" stroke-linecap="round"/>
    <path d="M118 774 C252 740 400 754 528 790 C692 836 864 822 1052 756" fill="none" stroke="#5c3a22" stroke-width="8" stroke-linecap="round" opacity=".5"/>
  </g>

  <g filter="url(#shadow)">
    <image href="animal-guard-cat.png" x="72" y="342" width="360" height="360"/>
    <image href="animal-guard-dog.png" x="320" y="486" width="324" height="324"/>
    <image href="animal-guard-fox.png" x="524" y="356" width="310" height="310"/>
  </g>

  <g filter="url(#shadow)">
    <path d="M806 366 C920 326 1034 352 1140 426 L1140 842 C1004 784 898 792 794 828Z" fill="#1d1717" opacity=".28"/>
    <image href="animal-guard-zombie-normal.png" x="806" y="354" width="306" height="306"/>
    <image href="animal-guard-zombie-shield.png" x="928" y="560" width="286" height="286"/>
  </g>

  <g filter="url(#shadow)">
    <path d="M448 506 C556 452 666 436 784 456" fill="none" stroke="#ffe76a" stroke-width="18" stroke-linecap="round"/>
    <path d="M448 506 C556 452 666 436 784 456" fill="none" stroke="#ffffff" stroke-width="7" stroke-linecap="round" opacity=".72"/>
    <circle cx="802" cy="460" r="34" fill="#ffe76a" stroke="#ffffff" stroke-width="8"/>
    <circle cx="802" cy="460" r="14" fill="#f09a25"/>
    <path d="M664 640 C758 598 848 596 950 628" fill="none" stroke="#9f86ff" stroke-width="15" stroke-linecap="round"/>
    <circle cx="966" cy="632" r="28" fill="#9f86ff" stroke="#f3e9ff" stroke-width="7"/>
  </g>

  <g filter="url(#shadow)">
    <path d="M72 752H360C388 752 404 768 404 796V830C404 858 388 874 360 874H72C44 874 28 858 28 830V796C28 768 44 752 72 752Z" fill="url(#title)" stroke="#3b2416" stroke-width="8"/>
    <text x="216" y="828" text-anchor="middle" font-family="Arial Rounded MT Bold, Noto Sans TC, sans-serif" font-size="38" font-weight="900" fill="#3b2416">5 x 9 Yard</text>
  </g>
</svg>
