<svg xmlns="http://www.w3.org/2000/svg" viewBox="0 0 160 160" role="img" aria-label="zombie">
  <defs>
    <linearGradient id="zSkin" x1="42" x2="122" y1="24" y2="136" gradientUnits="userSpaceOnUse">
      <stop stop-color="#9ed0a5"/>
      <stop offset="1" stop-color="#527a5d"/>
    </linearGradient>
    <linearGradient id="zShirt" x1="50" x2="116" y1="72" y2="130" gradientUnits="userSpaceOnUse">
      <stop stop-color="#9bd5ff"/>
      <stop offset="1" stop-color="#3472a8"/>
    </linearGradient>
  </defs>
  <ellipse cx="83" cy="143" rx="49" ry="10" fill="#102018" opacity=".2"/>
  <path d="M47 73c-20 3-29 16-30 32 17 2 32-7 39-25z" fill="#729879" stroke="#253027" stroke-width="7" stroke-linejoin="round"/>
  <path d="M111 74c22 4 31 18 31 34-18 2-33-8-40-27z" fill="#729879" stroke="#253027" stroke-width="7" stroke-linejoin="round"/>
  <path d="M48 75c5-26 24-41 50-36 27 5 43 26 39 55-5 33-26 47-58 43-29-4-38-29-31-62z" fill="url(#zSkin)" stroke="#253027" stroke-width="7" stroke-linejoin="round"/>
  <path d="M57 80c17 11 45 12 67-1l-2 37c-5 16-17 23-34 22-17-2-28-11-31-27z" fill="url(#zShirt)" stroke="#253027" stroke-width="6" stroke-linejoin="round"/>
  <path d="M72 47c10-17 42-16 54 2 10 16 2 38-22 42-25 4-45-22-32-44z" fill="#94c99a" stroke="#253027" stroke-width="7"/>
  <circle cx="91" cy="61" r="5" fill="#1d2720"/>
  <circle cx="116" cy="59" r="5" fill="#1d2720"/>
  <path d="M95 75c8 6 20 5 27-3" fill="none" stroke="#253027" stroke-width="5" stroke-linecap="round"/>
  <path d="M76 43c15 7 31 7 47-1" fill="none" stroke="#2f5d39" stroke-width="7" stroke-linecap="round"/>
  <path d="M64 116h15l-3 25H56zm49 1h15l8 23h-22z" fill="#405e47" stroke="#253027" stroke-width="6" stroke-linejoin="round"/>
</svg>
