<svg xmlns="http://www.w3.org/2000/svg" viewBox="0 0 1200 900" role="img" aria-label="Animal Guard Yard cover">
  <defs>
    <linearGradient id="sky" x1="0" x2="0" y1="0" y2="1">
      <stop offset="0" stop-color="#7fd7ff"/>
      <stop offset=".58" stop-color="#fff1a8"/>
      <stop offset="1" stop-color="#78c96b"/>
    </linearGradient>
    <linearGradient id="yard" x1="0" x2="1" y1="0" y2="1">
      <stop offset="0" stop-color="#7ee47c"/>
      <stop offset="1" stop-color="#3aa85e"/>
    </linearGradient>
    <filter id="shadow" x="-20%" y="-20%" width="140%" height="140%">
      <feDropShadow dx="0" dy="18" stdDeviation="12" flood-color="#1b3c3c" flood-opacity=".25"/>
    </filter>
  </defs>
  <rect width="1200" height="900" rx="64" fill="url(#sky)"/>
  <circle cx="1006" cy="128" r="76" fill="#fff36b"/>
  <g opacity=".55" fill="#fff">
    <ellipse cx="164" cy="158" rx="116" ry="40"/>
    <ellipse cx="237" cy="150" rx="82" ry="34"/>
    <ellipse cx="896" cy="220" rx="132" ry="44"/>
    <ellipse cx="990" cy="214" rx="88" ry="34"/>
  </g>
  <path d="M0 454 C175 398 315 420 474 468 C675 530 852 472 1200 410 L1200 900 L0 900 Z" fill="url(#yard)"/>
  <g opacity=".26" stroke="#1f7d49" stroke-width="8">
    <path d="M96 572 H1098"/>
    <path d="M96 704 H1098"/>
    <path d="M230 492 V832"/>
    <path d="M430 492 V832"/>
    <path d="M630 492 V832"/>
    <path d="M830 492 V832"/>
    <path d="M1030 492 V832"/>
  </g>
  <g filter="url(#shadow)">
    <rect x="80" y="548" width="162" height="142" rx="42" fill="#fff7d5"/>
    <text x="161" y="648" text-anchor="middle" font-family="Arial Rounded MT Bold, sans-serif" font-size="92">🐱</text>
    <rect x="94" y="690" width="132" height="20" rx="10" fill="#ffc857"/>
  </g>
  <g filter="url(#shadow)">
    <rect x="266" y="652" width="162" height="142" rx="42" fill="#e8f5ff"/>
    <text x="347" y="752" text-anchor="middle" font-family="Arial Rounded MT Bold, sans-serif" font-size="92">🐶</text>
    <rect x="280" y="794" width="132" height="20" rx="10" fill="#4fb3ff"/>
  </g>
  <g filter="url(#shadow)">
    <rect x="454" y="516" width="162" height="142" rx="42" fill="#f0e8ff"/>
    <text x="535" y="616" text-anchor="middle" font-family="Arial Rounded MT Bold, sans-serif" font-size="92">🦉</text>
    <rect x="468" y="658" width="132" height="20" rx="10" fill="#a16bff"/>
  </g>
  <g filter="url(#shadow)">
    <rect x="878" y="536" width="162" height="142" rx="42" fill="#b9d2c4"/>
    <circle cx="930" cy="588" r="12" fill="#243536"/>
    <circle cx="990" cy="588" r="12" fill="#243536"/>
    <path d="M926 638 C952 658 982 658 1006 636" fill="none" stroke="#243536" stroke-width="12" stroke-linecap="round"/>
    <text x="959" y="523" text-anchor="middle" font-family="Arial Rounded MT Bold, sans-serif" font-size="86">🧟</text>
  </g>
  <g filter="url(#shadow)">
    <rect x="724" y="662" width="176" height="152" rx="44" fill="#9bc6a7"/>
    <text x="812" y="768" text-anchor="middle" font-family="Arial Rounded MT Bold, sans-serif" font-size="96">🧟</text>
    <circle cx="866" cy="684" r="30" fill="#d7e8ef"/>
  </g>
  <rect x="86" y="78" width="1028" height="116" rx="40" fill="rgba(255,255,255,.76)"/>
  <text x="600" y="154" text-anchor="middle" font-family="Arial Rounded MT Bold, Noto Sans TC, sans-serif" font-size="58" font-weight="900" fill="#17314f">Animal Guard Yard</text>
</svg>
