<svg xmlns="http://www.w3.org/2000/svg" viewBox="0 0 160 160" role="img" aria-label="owl guard">
  <defs>
    <linearGradient id="owlBody" x1="43" x2="123" y1="28" y2="136" gradientUnits="userSpaceOnUse">
      <stop stop-color="#c7a78a"/>
      <stop offset="1" stop-color="#5d4635"/>
    </linearGradient>
    <linearGradient id="owlCloak" x1="54" x2="116" y1="78" y2="134" gradientUnits="userSpaceOnUse">
      <stop stop-color="#9f86ff"/>
      <stop offset="1" stop-color="#4d3ca6"/>
    </linearGradient>
  </defs>
  <ellipse cx="82" cy="143" rx="49" ry="10" fill="#16331f" opacity=".18"/>
  <path d="M45 63c0-26 18-43 42-43 25 0 44 18 44 45 0 44-18 74-44 74-27 0-42-30-42-76z" fill="url(#owlBody)" stroke="#2f2119" stroke-width="7" stroke-linejoin="round"/>
  <path d="M50 60 43 27l28 18zm73 0 8-33-29 18z" fill="#5d4635" stroke="#2f2119" stroke-width="7" stroke-linejoin="round"/>
  <path d="M56 81c16 12 46 12 62 0v33c-6 17-17 25-32 25-16 0-26-10-30-26z" fill="url(#owlCloak)" stroke="#2f2119" stroke-width="6" stroke-linejoin="round"/>
  <circle cx="73" cy="64" r="17" fill="#fff1af" stroke="#2f2119" stroke-width="6"/>
  <circle cx="101" cy="64" r="17" fill="#fff1af" stroke="#2f2119" stroke-width="6"/>
  <circle cx="76" cy="66" r="7" fill="#18251e"/>
  <circle cx="98" cy="66" r="7" fill="#18251e"/>
  <path d="M84 75h9l-5 10z" fill="#f4a028" stroke="#2f2119" stroke-width="4" stroke-linejoin="round"/>
  <path d="M61 106c13 10 39 10 52 0" fill="none" stroke="#cdbfff" stroke-width="6" stroke-linecap="round"/>
  <path d="M67 132h12l-7 12zm31 0h12l-6 12z" fill="#f4a028" stroke="#2f2119" stroke-width="5" stroke-linejoin="round"/>
</svg>
