<svg xmlns="http://www.w3.org/2000/svg" viewBox="0 0 160 160" role="img" aria-label="dog guard">
  <defs>
    <linearGradient id="dogFur" x1="34" x2="126" y1="24" y2="134" gradientUnits="userSpaceOnUse">
      <stop stop-color="#f2c58a"/>
      <stop offset="1" stop-color="#9b623b"/>
    </linearGradient>
    <linearGradient id="dogBand" x1="45" x2="126" y1="80" y2="126" gradientUnits="userSpaceOnUse">
      <stop stop-color="#ff6969"/>
      <stop offset="1" stop-color="#b92443"/>
    </linearGradient>
  </defs>
  <ellipse cx="82" cy="142" rx="55" ry="10" fill="#16331f" opacity=".18"/>
  <path d="M37 91c-19-13-20-31-8-40 12-9 29-3 35 11 3 7 0 14-7 17-7 2-13-2-15-9-2-5-7-6-10-3-4 4 0 11 12 18z" fill="#8c5634" stroke="#3a2418" stroke-width="7" stroke-linejoin="round"/>
  <path d="M43 76c5-25 27-39 58-34 30 4 47 27 42 55-6 31-30 45-64 40-30-4-43-28-36-61z" fill="url(#dogFur)" stroke="#3a2418" stroke-width="7" stroke-linejoin="round"/>
  <path d="M57 85c16 8 48 9 70-4l-3 33c-4 17-18 25-37 23-19-2-30-13-32-29z" fill="url(#dogBand)" stroke="#3a2418" stroke-width="6" stroke-linejoin="round"/>
  <path d="M69 47c10-19 46-18 58 2 11 19-1 42-28 43-27 1-42-23-30-45z" fill="#d99a62" stroke="#3a2418" stroke-width="7"/>
  <path d="M66 49c-21 10-21 35-4 47 11-16 14-31 4-47zm62 0c20 11 19 35 1 47-10-17-12-31-1-47z" fill="#6c422d" stroke="#3a2418" stroke-width="6" stroke-linejoin="round"/>
  <circle cx="91" cy="61" r="5" fill="#18251e"/>
  <circle cx="116" cy="61" r="5" fill="#18251e"/>
  <path d="M101 71h13l-7 8z" fill="#1f2320" stroke="#3a2418" stroke-width="3" stroke-linejoin="round"/>
  <path d="M96 80c7 5 15 5 23 0" fill="none" stroke="#3a2418" stroke-width="5" stroke-linecap="round"/>
  <path d="M63 115h15l-3 26H56zm48 1h15l8 24h-21z" fill="#8c5634" stroke="#3a2418" stroke-width="6" stroke-linejoin="round"/>
  <circle cx="93" cy="107" r="8" fill="#ffd967" stroke="#3a2418" stroke-width="4"/>
</svg>
