<svg xmlns="http://www.w3.org/2000/svg" viewBox="0 0 160 160" role="img" aria-label="fox guard">
  <defs>
    <linearGradient id="foxFur" x1="33" x2="130" y1="19" y2="137" gradientUnits="userSpaceOnUse">
      <stop stop-color="#ffb55e"/>
      <stop offset="1" stop-color="#dd4a24"/>
    </linearGradient>
    <linearGradient id="foxCape" x1="52" x2="124" y1="78" y2="129" gradientUnits="userSpaceOnUse">
      <stop stop-color="#59e28b"/>
      <stop offset="1" stop-color="#138f56"/>
    </linearGradient>
  </defs>
  <ellipse cx="81" cy="142" rx="56" ry="10" fill="#16331f" opacity=".18"/>
  <path d="M41 99c-22-8-29-27-18-40 11-13 34-11 46 2 7 8 6 18-1 23-8 5-17 2-22-6-4-6-10-7-14-3-5 6 2 16 18 22z" fill="#d84b25" stroke="#3a2418" stroke-width="7" stroke-linejoin="round"/>
  <path d="M46 74c7-27 30-41 61-34 28 7 43 30 36 58-8 31-35 45-68 38-29-7-38-29-29-62z" fill="url(#foxFur)" stroke="#3a2418" stroke-width="7" stroke-linejoin="round"/>
  <path d="M59 82c17 10 45 10 69-3l-6 35c-5 16-19 24-38 21-18-3-29-13-31-29z" fill="url(#foxCape)" stroke="#3a2418" stroke-width="6" stroke-linejoin="round"/>
  <path d="M72 43 61 14l31 17zm40-5 18-25 10 34z" fill="#dd4a24" stroke="#3a2418" stroke-width="7" stroke-linejoin="round"/>
  <path d="M73 50c13-19 46-17 58 4 10 18-2 40-29 40-28 0-43-24-29-44z" fill="#ff9650" stroke="#3a2418" stroke-width="7"/>
  <path d="M91 75c11 6 21 6 31-2" fill="none" stroke="#3a2418" stroke-width="5" stroke-linecap="round"/>
  <circle cx="91" cy="60" r="5" fill="#18251e"/>
  <circle cx="118" cy="61" r="5" fill="#18251e"/>
  <path d="M103 70h10l-6 8z" fill="#222" stroke="#3a2418" stroke-width="3" stroke-linejoin="round"/>
  <path d="M63 114h15l-5 27H54zm48 2h15l8 24h-23z" fill="#b43822" stroke="#3a2418" stroke-width="6" stroke-linejoin="round"/>
  <path d="M130 86c14 8 17 21 8 32" fill="none" stroke="#fff0c3" stroke-width="7" stroke-linecap="round"/>
</svg>
