<svg xmlns="http://www.w3.org/2000/svg" viewBox="0 0 160 160" role="img" aria-label="shield zombie">
  <defs>
    <linearGradient id="szSkin" x1="40" x2="118" y1="25" y2="137" gradientUnits="userSpaceOnUse">
      <stop stop-color="#a3d39f"/>
      <stop offset="1" stop-color="#547a55"/>
    </linearGradient>
    <linearGradient id="shield" x1="102" x2="151" y1="50" y2="124" gradientUnits="userSpaceOnUse">
      <stop stop-color="#eefaff"/>
      <stop offset="1" stop-color="#74a8c9"/>
    </linearGradient>
  </defs>
  <ellipse cx="83" cy="143" rx="51" ry="10" fill="#102018" opacity=".2"/>
  <path d="M45 75c-20 5-29 19-28 35 18 1 33-9 40-28z" fill="#6d966e" stroke="#253027" stroke-width="7" stroke-linejoin="round"/>
  <path d="M48 75c5-25 24-41 51-36 28 4 43 26 39 55-4 31-27 45-60 42-29-4-38-28-30-61z" fill="url(#szSkin)" stroke="#253027" stroke-width="7" stroke-linejoin="round"/>
  <path d="M58 80c17 11 45 11 67-1l-3 35c-4 17-17 25-35 23-17-2-28-12-30-27z" fill="#7c6ac6" stroke="#253027" stroke-width="6" stroke-linejoin="round"/>
  <path d="M72 48c10-18 42-17 54 1 11 18 1 39-23 42-25 3-44-21-31-43z" fill="#9bc996" stroke="#253027" stroke-width="7"/>
  <circle cx="91" cy="61" r="5" fill="#1d2720"/>
  <circle cx="116" cy="59" r="5" fill="#1d2720"/>
  <path d="M95 74c8 6 20 5 27-3" fill="none" stroke="#253027" stroke-width="5" stroke-linecap="round"/>
  <path d="M64 116h15l-3 25H56zm48 1h15l8 23h-22z" fill="#415f46" stroke="#253027" stroke-width="6" stroke-linejoin="round"/>
  <path d="M104 54c17 4 30 4 43 0 4 38-8 66-43 76-18-24-18-50 0-76z" fill="url(#shield)" stroke="#253027" stroke-width="7" stroke-linejoin="round"/>
  <path d="M113 67c10 3 17 3 26 0" fill="none" stroke="#fff" stroke-width="6" stroke-linecap="round" opacity=".9"/>
</svg>
