<svg xmlns="http://www.w3.org/2000/svg" viewBox="0 0 180 220">
<defs><filter id="s" x="-20%" y="-20%" width="140%" height="140%"><feDropShadow dx="0" dy="8" stdDeviation="8" flood-opacity=".28"/></filter></defs>
<ellipse cx="92" cy="202" rx="62" ry="13" fill="#0f172a" opacity=".25"/>
<g filter="url(#s)"><path d="M70 85c-18 22-30 42-50 55" stroke="#f6b88d" stroke-width="16" stroke-linecap="round"/><path d="M112 88c22 10 35 22 52 18" stroke="#f6b88d" stroke-width="16" stroke-linecap="round"/><path d="M75 143c-7 22-16 39-35 53" stroke="#1d4ed8" stroke-width="18" stroke-linecap="round"/><path d="M109 142c14 22 29 34 50 40" stroke="#1d4ed8" stroke-width="18" stroke-linecap="round"/><rect x="51" y="70" width="80" height="88" rx="25" fill="#ef4444"/><path d="M62 78c22 20 43 28 64 12" fill="none" stroke="#facc15" stroke-width="8" stroke-linecap="round"/><circle cx="91" cy="46" r="36" fill="#f6c09a"/><path d="M54 39c13-28 57-39 78-8-16-4-27-2-37 5-12 8-25 8-41 3z" fill="#7c2d12"/><circle cx="78" cy="49" r="5" fill="#111827"/><circle cx="103" cy="49" r="5" fill="#111827"/><path d="M78 66q13 10 27 0" fill="none" stroke="#8b4513" stroke-width="4" stroke-linecap="round"/><path d="M43 195h45" stroke="#f97316" stroke-width="14" stroke-linecap="round"/><path d="M139 183h36" stroke="#f97316" stroke-width="14" stroke-linecap="round"/></g>
</svg>