<svg xmlns="http://www.w3.org/2000/svg" viewBox="0 0 1200 800">
  <defs>
    <linearGradient id="bg" x1="0" x2="1" y1="0" y2="1">
      <stop offset="0" stop-color="#ffe08a"/>
      <stop offset="0.5" stop-color="#9ee7b7"/>
      <stop offset="1" stop-color="#71c7ff"/>
    </linearGradient>
    <filter id="shadow" x="-20%" y="-20%" width="140%" height="140%">
      <feDropShadow dx="0" dy="16" stdDeviation="14" flood-color="#1b2636" flood-opacity="0.28"/>
    </filter>
  </defs>
  <rect width="1200" height="800" rx="46" fill="url(#bg)"/>
  <circle cx="104" cy="100" r="54" fill="#fff6" />
  <circle cx="1080" cy="156" r="76" fill="#fff5" />
  <circle cx="980" cy="670" r="104" fill="#fff4" />
  <g filter="url(#shadow)">
    <rect x="210" y="120" width="780" height="560" rx="54" fill="#fffdf1" stroke="#26364d" stroke-width="12"/>
    <rect x="258" y="220" width="684" height="392" rx="34" fill="#f7fbff" stroke="#c9d7e8" stroke-width="8"/>
    <line x1="258" y1="300" x2="942" y2="300" stroke="#ff6d78" stroke-width="8" stroke-dasharray="22 18"/>
    <circle cx="420" cy="500" r="62" fill="#7d4dff"/>
    <circle cx="540" cy="492" r="78" fill="#ff4b68"/>
    <circle cx="670" cy="464" r="92" fill="#ff9d38"/>
    <circle cx="792" cy="438" r="114" fill="#2fca66"/>
    <path d="M705 392c52 74 92 88 173 70-14 60-67 103-132 103-72 0-132-56-136-126 24-2 61-16 95-47z" fill="#21a956"/>
    <path d="M820 355c28-36 70-42 104-25-35 17-59 39-70 71" fill="#177d3e"/>
    <circle cx="380" cy="360" r="34" fill="#4359d8"/>
    <circle cx="458" cy="342" r="42" fill="#673ee6"/>
    <circle cx="560" cy="330" r="52" fill="#ffcf43"/>
    <circle cx="668" cy="312" r="58" fill="#ff7a35"/>
  </g>
  <text x="600" y="108" text-anchor="middle" font-family="Arial, sans-serif" font-size="72" font-weight="900" fill="#26364d">FRUIT MERGE</text>
  <text x="600" y="736" text-anchor="middle" font-family="Arial, sans-serif" font-size="44" font-weight="900" fill="#26364d">Blueberry to Watermelon</text>
</svg>
